<?xml version="1.0" encoding="utf-8"?>
<!-- Generator: Adobe Illustrator 18.1.0, SVG Export Plug-In . SVG Version: 6.00 Build 0)  -->
<svg version="1.1" id="Capa_1" xmlns="http://www.w3.org/2000/svg" xmlns:xlink="http://www.w3.org/1999/xlink" x="0px" y="0px"
	 viewBox="0 0 306 440" enable-background="new 0 0 306 440" xml:space="preserve">
<g>
	<path fill="none" stroke="#62B4E2" stroke-width="5" stroke-miterlimit="10" d="M15.5,155.5c0.3,4.2,1.1,8.3,2.4,12.3"/>
	<path fill="none" stroke="#62B4E2" stroke-width="5" stroke-miterlimit="10" d="M19.9,129.4c-2,4.5-3.3,9.2-4,14"/>
	<g>
		<g>
			<g>
				<path fill="#E0E0E0" d="M198.7,55.6H98.6V43c0-3.3,2.7-6,6-6h88.2c3.3,0,6,2.7,6,6V55.6z"/>
				<g>
					<circle fill="#EF3F3F" cx="107.7" cy="46.2" r="2.9"/>
					<circle fill="#66BD4E" cx="125.2" cy="46.2" r="2.9"/>
					<circle fill="#EDC33E" cx="116.4" cy="46.2" r="2.9"/>
				</g>
			</g>
			<g>
				<path fill="#FFFFFF" stroke="#E5E5E3" stroke-width="5" stroke-miterlimit="10" d="M188.9,127.5h-81.6c-3.3,0-6-2.7-6-6V61.3
					h93.6v60.2C194.9,124.8,192.2,127.5,188.9,127.5z"/>
				<g>
					
						<rect x="138" y="90.9" transform="matrix(0.7071 -0.7071 0.7071 0.7071 -21.655 133.0454)" fill="#EF3F3F" width="23.5" height="3.5"/>
					
						<rect x="148.2" y="79.8" transform="matrix(0.7071 -0.7071 0.7071 0.7071 -21.655 133.0454)" fill="#EF3F3F" width="3.2" height="25.7"/>
				</g>
			</g>
		</g>
		<g>
			<polygon fill="#3C96D2" points="170.6,231.3 126.7,231.3 126.7,200.5 			"/>
			<polygon fill="#62B4E2" points="126.7,231.3 170.6,231.3 170.6,200.5 			"/>
			<polygon fill="#47ACD7" points="126.7,231.4 148.7,215.9 170.6,231.4 			"/>
			<polygon fill="#2785AF" points="170.6,200.5 148.7,222.4 126.7,200.5 			"/>
		</g>
		<g>
			<g>
				<g>
					<path fill="#FFFFFF" stroke="#E5E5E3" stroke-width="5" stroke-miterlimit="10" d="M189.1,321.7H111c-3.3,0-6,2.7-6,6v57.7
						h90.1v-57.7C195.1,324.4,192.5,321.7,189.1,321.7z"/>
					<rect x="119.5" y="329.3" fill="#2785AF" width="62.4" height="1.9"/>
					<rect x="119.5" y="334.3" fill="#D2D1CF" width="18.6" height="1.9"/>
					<rect x="119.5" y="338.2" fill="#D2D1CF" width="26.7" height="1.9"/>
					<rect x="119.5" y="342.5" fill="#D2D1CF" width="20.9" height="1.9"/>
					<rect x="119.5" y="346.7" fill="#D2D1CF" width="24.2" height="1.9"/>
					<rect x="155" y="334.3" fill="#D2D1CF" width="18.6" height="1.9"/>
					<rect x="155" y="338.2" fill="#D2D1CF" width="18.6" height="1.9"/>
					<rect x="155" y="342.5" fill="#D2D1CF" width="20.9" height="1.9"/>
					<rect x="155" y="346.5" fill="#D2D1CF" width="24.2" height="1.9"/>
					<rect x="119.5" y="350.3" fill="#D2D1CF" width="62.4" height="1.9"/>
					<rect x="119.5" y="356.3" fill="#D2D1CF" width="62.4" height="1.9"/>
					<rect x="119.5" y="361.3" fill="#D2D1CF" width="18.6" height="1.9"/>
					<rect x="119.5" y="365.2" fill="#D2D1CF" width="26.7" height="1.9"/>
					<rect x="119.5" y="369.5" fill="#D2D1CF" width="20.9" height="1.9"/>
					<rect x="119.5" y="373.7" fill="#D2D1CF" width="24.2" height="1.9"/>
					<rect x="155" y="361.3" fill="#D2D1CF" width="18.6" height="1.9"/>
					<rect x="155" y="365.2" fill="#D2D1CF" width="18.6" height="1.9"/>
					<rect x="155" y="369.5" fill="#D2D1CF" width="20.9" height="1.9"/>
					<rect x="155" y="373.5" fill="#D2D1CF" width="24.2" height="1.9"/>
					<rect x="119.5" y="377.3" fill="#D2D1CF" width="62.4" height="1.9"/>
				</g>
			</g>
			<polygon fill="#E5E5E3" stroke="#E5E5E3" stroke-width="5" stroke-miterlimit="10" points="237.4,406.2 148.7,407.9 114.6,391.5 
				196.4,391.5 			"/>
			<polygon fill="#E5E5E3" points="148,410.5 104.3,391.5 103.9,389.4 109.2,392.4 			"/>
		</g>
		<path fill="none" stroke="#62B4E2" stroke-width="5" stroke-miterlimit="10" d="M85.5,216.8c6.4,0.8,12.9,1.1,19.3,1"/>
		<path fill="none" stroke="#62B4E2" stroke-width="5" stroke-miterlimit="10" d="M61.1,210.9c4,1.5,8.1,2.8,12.3,3.8"/>
		<path fill="none" stroke="#62B4E2" stroke-width="5" stroke-miterlimit="10" d="M39.6,198.4c3.2,2.7,6.6,5,10.2,7.1"/>
		<path fill="none" stroke="#62B4E2" stroke-width="5" stroke-miterlimit="10" d="M22.9,179.3c2,3.5,4.4,6.8,7,9.9"/>
		<path fill="none" stroke="#62B4E2" stroke-width="5" stroke-miterlimit="10" d="M39.8,105.4c-5,3.4-9.5,7.7-13.1,12.5"/>
		<path fill="none" stroke="#62B4E2" stroke-width="5" stroke-miterlimit="10" d="M67.7,93.7C62,95,56.3,96.8,50.9,99.2"/>
		<path fill="none" stroke="#62B4E2" stroke-width="5" stroke-miterlimit="10" d="M91.3,90.7c-4.1,0.1-8.2,0.5-12.3,1"/>
		<path fill="none" stroke="#62B4E2" stroke-width="5" stroke-miterlimit="10" d="M232,352.3c-7.2,2.3-14.7,3.8-22.2,4.7"/>
		<path fill="none" stroke="#62B4E2" stroke-width="5" stroke-miterlimit="10" d="M254.4,340.6c-3.7,2.7-7.7,5-11.8,7.1"/>
		<path fill="none" stroke="#62B4E2" stroke-width="5" stroke-miterlimit="10" d="M272.6,321.5c-2.4,3.8-5.3,7.4-8.4,10.6"/>
		<path fill="none" stroke="#62B4E2" stroke-width="5" stroke-miterlimit="10" d="M282.2,294.8c-0.6,5.2-1.8,10.3-3.7,15.2"/>
		<path fill="none" stroke="#62B4E2" stroke-width="5" stroke-miterlimit="10" d="M279.1,268.7c1.5,4.3,2.5,8.7,3,13.2"/>
		<path fill="none" stroke="#62B4E2" stroke-width="5" stroke-miterlimit="10" d="M264.1,244.2c3.6,3.8,6.9,8.1,9.5,12.7"/>
		<path fill="none" stroke="#62B4E2" stroke-width="5" stroke-miterlimit="10" d="M243.3,228.9c3.8,1.9,7.5,4.1,10.9,6.6"/>
		<path fill="none" stroke="#62B4E2" stroke-width="5" stroke-miterlimit="10" d="M214.1,220.3c5.7,0.7,11.4,2,16.9,3.7"/>
		<path fill="none" stroke="#62B4E2" stroke-width="5" stroke-miterlimit="10" d="M188.3,219.9c4.7-0.4,9.5-0.6,14.2-0.5"/>
		<path fill="#62B4E2" d="M103.1,206.9c1.1-1,2.8-0.9,3.7,0.2l8.4,9.5c1,1.1,0.9,2.8-0.2,3.7l-9.5,8.4c-1.1,1-2.8,0.9-3.7-0.2
			L103.1,206.9z"/>
		<path fill="#62B4E2" d="M216.1,366.6c-0.9,1.1-2.6,1.3-3.7,0.4l-10-7.9c-1.1-0.9-1.3-2.6-0.4-3.7l7.9-10c0.9-1.1,2.6-1.3,3.7-0.4
			L216.1,366.6z"/>
	</g>
</g>
</svg>
