<?xml version="1.0" encoding="utf-8"?>
<!-- Generator: Adobe Illustrator 18.1.0, SVG Export Plug-In . SVG Version: 6.00 Build 0)  -->
<svg version="1.1" id="Capa_1" xmlns="http://www.w3.org/2000/svg" xmlns:xlink="http://www.w3.org/1999/xlink" x="0px" y="0px"
	 viewBox="0 0 485 173" enable-background="new 0 0 485 173" xml:space="preserve">
<path fill="#2785AF" d="M477.9,116.6L477.9,116.6c-3.4,3.4-6.7,6.5-9.8,9.3c-1.4,1.2-2.7,2.3-4.1,3.4c-1.4,1.1-2.7,2.1-4.1,3
	c-1.3,0.9-2.6,1.5-3.7,2.1c-1.1,0.5-2.2,0.8-3,0.8c-1.9,0-3.4-1.2-4.3-3.5c-0.9-2.4-1.4-5.4-1.4-9c0-2.2,0.1-4.6,0.4-7.2
	c0.3-2.6,0.6-5.2,1-7.9c0.4-2.7,0.9-5.2,1.4-7.8c0.5-2.5,1-4.9,1.4-7c0.4-2.1,0.8-3.9,1-5.5c0.3-1.5,0.4-2.6,0.4-3.3
	c0-4.4-0.9-7.8-2.6-10.3c-1.7-2.5-4.1-3.7-7-3.7c-2.9,0-5.6,0.6-8,1.8c-2.4,1.2-4.6,3.4-6.5,6.5c-0.4,0.7-1,1.8-1.9,3.3
	c-0.8,1.5-1.7,3.2-2.7,5.1c-1,1.9-2.1,3.9-3.2,6c-1.1,2.1-2.2,4.1-3.2,6c-1,1.9-1.9,3.6-2.7,5c-0.8,1.4-1.3,3.2-1.7,3.2h-1.8
	c0,0,0.1-1.3,0.3-2.5c0.2-1.2,0.4-2.6,0.7-4.3c0.3-1.6,0.5-3.4,0.8-5.3c0.3-1.9,0.6-3.8,0.8-5.6c0.3-1.8,0.5-3.5,0.7-5
	c0.2-1.5,0.3-2.7,0.3-3.6c0-3.2-0.6-5.8-1.9-7.8c-1.2-1.9-3.4-2.9-6.6-2.9c-3.2,0-5.7,0.9-7.6,2.7c-1.9,1.8-3.1,4.1-3.8,6.8
	c-0.8,3.5-1.7,7.7-2.6,12.6c-0.9,4.9-1.7,10-2.4,15.3c-0.4,3.1-0.8,6.1-1.1,9.1c-1.9,1.7-4.1,3.5-6.5,5.3c-3.3,2.5-6.8,4.8-10.5,6.9
	c-3.7,2.1-7.5,3.9-11.4,5.3c-3.9,1.4-7.6,2.1-11.2,2.1c-1.1,0-2.2-0.1-3.1-0.4c-1-0.2-1.9-0.6-2.8-1.2c-0.9-0.6-1.8-1.4-2.6-2.5
	c-0.9-1.1-1.7-2.4-2.6-4c5.1-1.4,9.9-3.4,14.3-5.9c4.4-2.5,8.2-5.4,11.4-8.7c3.2-3.2,5.7-6.7,7.5-10.3c1.8-3.7,2.7-7.3,2.7-11
	c0-3.4-0.6-6.4-1.8-9.1c-1.2-2.7-2.8-5-4.9-6.9c-2.1-1.9-4.6-3.4-7.4-4.5c-2.8-1.1-5.9-1.6-9.2-1.6c-4.1,0-7.8,0.7-11.1,2.2
	c-3.3,1.4-6.3,3.4-9,5.8c-2.7,2.4-5,5.3-7,8.5c-2,3.2-3.7,6.6-5,10.1c-1.3,3.5-2.3,7.1-3,10.8c-0.6,3.7-1,7.2-1,10.5
	c0,1.5,0.1,2.9,0.2,4.4c-1.7,0.9-3.4,1.7-5,2.5c-2.7,1.2-5.2,2.4-7.6,3.6c-2.4,1.1-4.7,2.4-6.9,3.8c0-3.8-0.1-7-0.4-9.8
	c-0.3-2.8-0.6-5.2-1.1-7.3c-0.4-2.1-0.9-4-1.4-5.6c-0.5-1.6-0.9-3.2-1.4-4.6c-0.4-1.4-0.8-2.9-1.1-4.4c-0.3-1.5-0.4-3.2-0.4-5
	c0.2-0.6,0.9-1.6,2.1-3c1.2-1.3,2.5-2.8,3.8-4.4c1.4-1.6,2.6-3.2,3.7-5c1.1-1.7,1.7-3.3,1.7-4.7c0-0.7-0.1-1.5-0.2-2.5
	c-0.1-1-0.5-1.9-1.2-2.8c-0.7-0.9-1.8-1.6-3.4-2.3c-1.5-0.6-3.7-0.9-6.5-0.9c-1.7,0-3.3,0.3-4.6,0.8c-1.4,0.5-2.7,1.1-3.8,1.9
	c-1.1,0.8-2.2,1.7-3.1,2.7c-0.9,1-1.8,2-2.6,3.1c-3.8,4.7-6.8,8.7-9.2,11.8c-2.4,3.2-4.4,5.8-6,8c-1.7,2.2-3.1,4.1-4.3,5.7
	c-1.2,1.6-2.6,3.2-4,4.7c-1.5,1.6-3.2,3.3-5.3,5.2c-2.1,1.9-4.7,4.2-8,7.1c-0.5,0.4-1.2,1-2.1,1.7c-0.9,0.7-1.9,1.5-2.8,2.5
	c-0.9,0.9-1.8,2-2.5,3.2c-0.6,1-0.9,2.2-1,3.4c-2,1-3.9,1.9-5.7,2.5c-1.9,0.6-3.4,1-4.7,1c-1.2,0-2.1-0.3-2.7-0.8
	c-0.6-0.6-1.1-1.4-1.4-2.4c-0.3-1-0.5-2.2-0.5-3.6c-0.1-1.4-0.1-2.9-0.1-4.6c0-0.9,0.2-2.5,0.5-4.7c0.4-2.3,0.8-4.9,1.4-7.9
	c0.6-3,1.2-6.2,1.8-9.7c0.6-3.5,1.3-6.9,1.8-10.1c0.6-3.3,1-6.3,1.4-9c0.4-2.7,0.5-4.9,0.5-6.5c0-1.7-0.9-3-2.7-4.1
	c-1.8-1.1-4.2-1.6-7.2-1.6c-2.7,0-5,0.5-7.1,1.5c-2.1,1-3.3,2.2-3.6,3.6l-8.8,44.9c-0.5,2.4-1.2,4.5-2.1,6.3c-0.9,1.9-2,3.4-3.2,4.7
	c-1.2,1.3-2.5,2.2-3.8,2.9c-1.4,0.7-2.7,1-4,1c-0.9,0-1.7-0.2-2.3-0.7c-0.6-0.5-1.2-1.1-1.6-1.9c-0.4-0.8-0.7-1.6-0.9-2.6
	c-0.2-1-0.3-2-0.3-3c0-0.1,0.1-1,0.4-2.7c0.3-1.8,0.6-4.1,1.1-7c0.5-2.9,1-6.2,1.6-9.9c0.6-3.7,1.2-7.5,1.9-11.4
	c0.6-3.9,1.3-7.8,1.9-11.6c0.6-3.8,1.2-7.3,1.7-10.4c0-1-0.7-1.8-2-2.5c-1.4-0.7-3.6-1.1-6.7-1.2c-1.9,0.1-3.6,0.6-5.1,1.5
	c-1.5,0.9-2.8,2.2-3.9,3.6c-1.1,1.5-2.1,3.1-2.9,5c-0.8,1.8-1.5,3.6-2.1,5.4c-0.6,1.8-1,3.4-1.3,4.9c-0.3,1.5-0.5,2.7-0.7,3.6
	c-1.6,9-2.9,17-4,24c-1.1,7-1.6,12.8-1.6,17.3c0,0.9,0,1.8,0.1,2.6c-1,0.6-2,1.1-2.9,1.6c-2.5,1.2-5,2.2-7.3,2.9
	c-2.4,0.7-4.6,1-6.6,1c-2.2,0-3.9-0.7-5.2-2c-1.3-1.3-2.4-3.1-3.2-5.3c-0.9-2.2-1.6-4.8-2.2-7.7c-0.6-2.9-1.3-6-2.1-9.2
	c-0.8-3.2-1.7-6.4-2.8-9.7c-1.1-3.3-2.6-6.4-4.4-9.4c-1.9-3-4.2-5.7-6.9-8.1c-2.8-2.4-6.2-4.4-10.3-5.9c6.8-0.4,12.9-1.4,18.3-2.9
	c5.4-1.5,10.3-3.4,14.5-5.6c4.2-2.2,7.9-4.8,10.9-7.6c3-2.8,5.5-5.8,7.5-8.8c1.9-3,3.4-6.1,4.3-9.2c0.9-3.1,1.4-6.1,1.4-8.9
	c0-4.4-0.7-8.4-2.1-12.1c-1.4-3.7-3.3-7.1-5.8-10.1c-2.4-3-5.4-5.7-8.8-8.1c-3.4-2.4-7.1-4.3-11-5.9c-3.9-1.6-8.1-2.8-12.5-3.6
	c-4.4-0.8-8.8-1.2-13.2-1.2c-10,0-19.4,1.3-28.3,4C66,8.9,57.8,12.6,50.2,17.3c-7.6,4.7-14.4,10.4-20.5,16.9
	c-6.1,6.5-11.2,13.7-15.5,21.4c-4.3,7.8-7.5,16-9.8,24.8C2.1,89.2,1,98.1,1,107.3c0,5.1,0.4,10.2,1.2,15.3c0.8,5.1,2,10.1,3.5,14.9
	c1.6,4.8,3.5,9.3,5.9,13.5c2.4,4.2,5.1,7.8,8.3,11c3.2,3.1,6.7,5.6,10.6,7.4c3.9,1.8,8.2,2.7,13,2.7c6.4,0,11.7-1.9,16.1-5.7
	c4.4-3.8,8-9.2,11-16.4c2.9-7.1,5.3-15.4,7-25.7C79.3,114.1,80.8,102,82,90h5.6c2.3,0,4.2,0.7,5.7,2.8c1.5,2.1,2.9,4.7,4,8.2
	c1.1,3.5,2.1,7.3,3.1,11.8c0.9,4.5,1.9,9,3,13.6c1.1,4.7,2.3,9.2,3.7,13.6c1.4,4.5,3.2,8.4,5.3,11.9c2.1,3.5,4.7,6.3,7.7,8.4
	c3,2.1,6.7,3.2,11,3.2c3.8,0,7.6-0.4,11.3-1.2c3.7-0.8,7.2-1.9,10.5-3.1c3.3-1.2,6.3-2.6,9.1-4c0.5-0.3,0.9-0.5,1.4-0.7
	c1.5,0.5,3.1,0.8,4.8,0.8c2.4,0,4.8-0.5,7.3-1.5c2.5-1,5-2.3,7.4-4c2.4-1.7,4.8-3.7,7.2-6.1c2.4-2.3,4.6-4.9,6.7-7.6
	c0.6,2.7,1.3,5.2,2.1,7.4c0.8,2.2,1.8,4.1,2.9,5.7c1.1,1.6,2.5,2.8,4.1,3.7c1.6,0.9,3.5,1.3,5.7,1.3c2.2,0,4.7-0.3,7.3-0.9
	c2.6-0.6,5.2-1.4,7.9-2.5c2.7-1,5.3-2.2,7.9-3.6c2.6-1.4,5.1-2.8,7.4-4.2c0.3-0.2,0.7-0.4,1-0.7c0.4,1.5,1,2.9,1.8,4.1
	c1.4,2.2,3.3,4.1,5.5,5.4c2.3,1.4,4.9,2.4,7.9,3.1c3,0.6,6.2,1,9.7,1c4.8,0,9.9-0.5,15.3-1.6c5.4-1.1,10.7-2.6,16-4.5
	c5.3-1.9,10.3-4.1,15.1-6.5c2.2-1.1,4.2-2.3,6.2-3.5c0.9,1.5,1.8,2.9,2.9,4.2c2.8,3.4,6.2,6.1,10.4,8.1c4.2,2,9,3,14.5,3
	c3.5,0,7-0.4,10.5-1.2c3.4-0.8,6.8-1.9,10-3.2c3.2-1.3,6.3-2.8,9.2-4.6c2.9-1.7,5.6-3.4,8.2-5.2c0.7-0.5,1.3-1,1.9-1.4
	c0.1,1.3,0.2,2.7,0.3,4c0.3,2.2,0.8,4.2,1.6,5.9c0.8,1.7,1.9,3.1,3.4,4.2c1.5,1,3.4,1.5,5.8,1.5c1.9,0,3.7-0.4,5.1-1.3
	c1.5-0.9,2.8-2.9,4-5.3l23.2-46.4h1.4c-0.7,5-1.3,9.5-1.8,13.6c-0.5,4.1-0.7,8.1-0.7,11.6c0,9,1.1,16,3.3,20.7
	c2.2,4.7,4.9,7.1,8.2,7.1c3.2,0,6.3-0.4,9.3-1.3c2.9-0.9,5.8-2.1,8.5-3.5c2.7-1.4,5.3-3.1,7.8-4.9c2.5-1.8,5-3.7,7.4-5.5l4.4-3.4
	l0-0.1C488.3,131.5,482.8,112,477.9,116.6z M85.4,71.4c0.5-4.8,1-9.1,1.6-12.8c0.6-3.7,0.9-6.6,0.9-8.9v-0.8c0-2.1-0.4-3.8-1.4-5.1
	c-1-1.3-2.9-2-5.8-2c-2.2,0-4.1,0.5-5.7,1.5c-1.6,1-2.9,2.2-4,3.8c-1.1,1.6-2,3.3-2.7,5.2c-0.7,1.9-1.2,3.8-1.5,5.7
	c-0.4,1.9-0.6,3.7-0.8,5.3c-0.1,1.7-0.3,2.9-0.3,3.9l-0.1,1.9c-0.4,0-1.1-0.1-2.3-0.2c-1.1-0.1-2.4-0.3-3.8-0.5
	c-1.4-0.2-2.7-0.4-3.9-0.5c-1.2-0.1-2.1-0.2-2.5-0.2c-0.9,0-1.7,0.3-2.3,0.8c-0.6,0.5-1,1.1-1.3,1.8c-0.3,0.7-0.5,1.5-0.6,2.3
	c-0.1,0.8-0.1,1.5-0.1,2.1c0,2.5,1.2,4.7,3.6,6.5c2.4,1.9,5.9,3.9,10.5,6.1c0,1.4,0,3.3-0.1,5.9c-0.1,2.6-0.2,5.5-0.4,8.8
	c-0.2,3.3-0.5,6.8-0.8,10.6c-0.4,3.8-0.8,7.5-1.4,11.2c-0.6,3.7-1.3,7.3-2.2,10.7c-0.9,3.4-1.9,6.5-3.1,9.1
	c-1.2,2.6-2.5,4.7-4.1,6.3c-1.5,1.6-3.3,2.3-5.3,2.3c-3.9,0-7.3-1.2-10.1-3.6c-2.8-2.4-5.1-5.5-6.9-9.3c-1.8-3.8-3.1-8.1-3.9-13
	c-0.8-4.8-1.2-9.6-1.2-14.4c0-6.2,0.6-12.7,1.7-19.5c1.1-6.8,3-13.6,5.5-20.2c2.5-6.7,5.8-13,9.9-19.1c4.1-6.1,9-11.4,14.8-16
	c5.8-4.6,12.5-8.3,20.1-11c7.6-2.7,16.3-4.1,26-4.1c5.3,0,10,0.6,14,1.8c4,1.2,7.4,2.8,10.1,4.9c2.7,2,4.8,4.4,6.1,7
	c1.4,2.7,2.1,5.4,2.1,8.3c0,2.9-0.7,6-2.2,9.2c-1.5,3.2-4,6.1-7.7,8.7c-3.7,2.7-8.6,4.8-14.9,6.6C103,70.2,95,71.2,85.4,71.4z
	 M275.9,132.3c-0.4,1.7-1,3.2-1.9,4.4c-0.9,1.3-2.1,2.3-3.6,3c-1.5,0.8-3.4,1.1-5.7,1.1c-1.9,0-3.6-0.4-5-1.3
	c-1.5-0.9-2.8-1.9-3.9-2.9c-1-0.9-1.9-1.8-2.7-2.6c0-1.5,0-2.9,0-4.2l20.1-20c0.3,0.9,0.6,2.1,1,3.4c0.4,1.3,0.7,2.7,1.1,4.2
	c0.3,1.5,0.6,3.1,0.8,4.7c0.2,1.7,0.3,3.3,0.3,4.9C276.4,128.8,276.2,130.6,275.9,132.3z M336.8,108.8c0.1-1.8,0.4-3.7,0.8-5.7
	c0.4-1.9,0.9-3.9,1.7-5.8c0.7-1.9,1.7-3.6,2.9-5.1c1.2-1.5,2.7-2.7,4.5-3.7c1.8-0.9,4-1.4,6.5-1.4c1.4,0,2.6,0.9,3.6,2.6
	c1,1.7,1.5,3.9,1.5,6.5c0,1.9-0.7,3.8-2.2,5.8c-1.5,2-3.3,3.9-5.4,5.6c-2.2,1.7-4.5,3.1-7,4.2c-2.5,1.1-4.8,1.6-6.9,1.6
	C336.6,112.2,336.7,110.6,336.8,108.8z"/>
</svg>
